<svg width="100" height="100" viewBox="0 0 100 100" fill="none" xmlns="http://www.w3.org/2000/svg">
<rect x="1" y="1" width="98" height="98" rx="49" fill="black" stroke="white" stroke-width="2"/>
<path d="M41.4727 23C36.5091 23 32.5 26.9604 32.5 31.8636C32.5 36.7292 36.5091 40.6895 41.4345 40.7273C40.2127 40.6895 39.2582 39.7089 39.2582 38.5019C39.2582 37.295 40.2509 36.2766 41.5109 36.2766C46.8563 36.2766 58.7309 36.2766 63.9618 36.2766C67.6655 36.2766 70.6818 33.2969 70.6818 29.6383C70.6818 25.9797 67.6655 23 63.9618 23L41.4727 23Z" fill="url(#paint0_linear_6_109)"/>
<path d="M41.4727 61.0002C36.5091 61.0002 32.5 64.9606 32.5 69.8639C32.5 74.7295 36.5091 78.6898 41.4345 78.7275C40.2127 78.6898 39.2582 77.7092 39.2582 76.5022C39.2582 75.2952 40.2509 74.2769 41.5109 74.2769C46.8563 74.2769 58.7309 74.2769 63.9618 74.2769C67.6655 74.2769 70.6818 71.2972 70.6818 67.6386C70.6818 63.9799 67.6655 61.0002 63.9618 61.0002L41.4727 61.0002Z" fill="url(#paint1_linear_6_109)"/>
<path d="M26.9725 43C22.0088 43 17.9998 46.9604 17.9998 51.8636C17.9998 56.7292 22.0088 60.6895 26.9343 60.7273C25.7125 60.6895 24.7579 59.7089 24.7579 58.5019C24.7579 57.295 25.7507 56.2766 27.0107 56.2766C32.3561 56.2766 44.2307 56.2766 49.4616 56.2766C53.1652 56.2766 56.1816 53.2969 56.1816 49.6383C56.1816 45.9797 53.1652 43 49.4616 43L26.9725 43Z" fill="url(#paint2_linear_6_109)"/>
<defs>
<linearGradient id="paint0_linear_6_109" x1="51.5455" y1="24.7727" x2="51.5909" y2="40.7273" gradientUnits="userSpaceOnUse">
<stop stop-color="#31FAC6"/>
<stop offset="1" stop-color="#179675"/>
</linearGradient>
<linearGradient id="paint1_linear_6_109" x1="51.5455" y1="62.7729" x2="51.5909" y2="78.7275" gradientUnits="userSpaceOnUse">
<stop stop-color="#31FAC6"/>
<stop offset="1" stop-color="#179675"/>
</linearGradient>
<linearGradient id="paint2_linear_6_109" x1="37.0452" y1="44.7727" x2="37.0907" y2="60.7273" gradientUnits="userSpaceOnUse">
<stop stop-color="#31FAC6"/>
<stop offset="1" stop-color="#179675"/>
</linearGradient>
</defs>
</svg>